<?xml version="1.0" encoding="UTF-8" standalone="no"?>
<!-- Created with Inkscape (http://www.inkscape.org/) -->

<svg
   xmlns:dc="http://purl.org/dc/elements/1.1/"
   xmlns:cc="http://creativecommons.org/ns#"
   xmlns:rdf="http://www.w3.org/1999/02/22-rdf-syntax-ns#"
   xmlns:svg="http://www.w3.org/2000/svg"
   xmlns="http://www.w3.org/2000/svg"
   xmlns:sodipodi="http://sodipodi.sourceforge.net/DTD/sodipodi-0.dtd"
   xmlns:inkscape="http://www.inkscape.org/namespaces/inkscape"
   width="210mm"
   height="297mm"
   viewBox="0 0 210 297"
   version="1.1"
   id="svg8"
   inkscape:version="0.92.4 (5da689c313, 2019-01-14)"
   sodipodi:docname="venni_logo.svg">
  <defs
     id="defs2" />
  <sodipodi:namedview
     id="base"
     pagecolor="#ffffff"
     bordercolor="#666666"
     borderopacity="1.0"
     inkscape:pageopacity="0.0"
     inkscape:pageshadow="2"
     inkscape:zoom="0.70710678"
     inkscape:cx="349.09133"
     inkscape:cy="651.83874"
     inkscape:document-units="px"
     inkscape:current-layer="layer1"
     showgrid="false"
     showborder="false"
     inkscape:window-width="1920"
     inkscape:window-height="1005"
     inkscape:window-x="0"
     inkscape:window-y="0"
     inkscape:window-maximized="1" />
  <metadata
     id="metadata5">
    <rdf:RDF>
      <cc:Work
         rdf:about="">
        <dc:format>image/svg+xml</dc:format>
        <dc:type
           rdf:resource="http://purl.org/dc/dcmitype/StillImage" />
        <dc:title></dc:title>
      </cc:Work>
    </rdf:RDF>
  </metadata>
  <g
     inkscape:label="Layer 1"
     inkscape:groupmode="layer"
     id="layer1">
    <flowRoot
       xml:space="preserve"
       id="flowRoot1137"
       style="fill:black;fill-opacity:1;stroke:none;font-family:msbm10;font-style:normal;font-weight:normal;font-size:40px;line-height:1.25;letter-spacing:0px;word-spacing:0px;-inkscape-font-specification:msbm10;font-stretch:normal;font-variant:normal;"><flowRegion
         id="flowRegion1139"
         style="-inkscape-font-specification:msbm10;font-family:msbm10;font-weight:normal;font-style:normal;font-stretch:normal;font-variant:normal;"><rect
           id="rect1141"
           width="1052"
           height="86"
           x="-326"
           y="569.51971"
           style="-inkscape-font-specification:msbm10;font-family:msbm10;font-weight:normal;font-style:normal;font-stretch:normal;font-variant:normal;" /></flowRegion><flowPara
         id="flowPara1143"></flowPara></flowRoot>    <g
       id="g1300"
       transform="translate(20.205577,-19.831399)">
      <g
         transform="translate(-52.759005,67.77472)"
         id="g1135">
        <g
           id="g1062"
           transform="translate(-5.0270833,-5.2916667)">
          <circle
             r="37.570831"
             cy="124.75625"
             cx="-64.822914"
             id="path827"
             style="opacity:1;fill:none;fill-opacity:1;stroke:#000000;stroke-width:0.79374999;stroke-miterlimit:4;stroke-dasharray:none;stroke-dashoffset:0" />
          <circle
             style="opacity:1;fill:none;fill-opacity:1;stroke:#000000;stroke-width:0.79374999;stroke-miterlimit:4;stroke-dasharray:none;stroke-dashoffset:0"
             id="circle829"
             cx="-18.732491"
             cy="124.75625"
             r="37.570831" />
          <circle
             r="37.570831"
             cy="124.75625"
             cx="27.357924"
             id="circle831"
             style="opacity:1;fill:none;fill-opacity:1;stroke:#000000;stroke-width:0.79374999;stroke-miterlimit:4;stroke-dasharray:none;stroke-dashoffset:0" />
          <circle
             style="opacity:1;fill:none;fill-opacity:1;stroke:#000000;stroke-width:0.79374999;stroke-miterlimit:4;stroke-dasharray:none;stroke-dashoffset:0"
             id="circle833"
             cx="73.448334"
             cy="124.75625"
             r="37.570831" />
          <circle
             r="37.570831"
             cy="124.75625"
             cx="119.53875"
             id="circle835"
             style="opacity:1;fill:none;fill-opacity:1;stroke:#000000;stroke-width:0.79374999;stroke-miterlimit:4;stroke-dasharray:none;stroke-dashoffset:0" />
          <circle
             style="opacity:1;fill:none;fill-opacity:1;stroke:#000000;stroke-width:0.79374999;stroke-miterlimit:4;stroke-dasharray:none;stroke-dashoffset:0"
             id="circle837"
             cx="165.62917"
             cy="124.75625"
             r="37.570831" />
          <g
             id="flowRoot839"
             style="font-style:normal;font-variant:normal;font-weight:normal;font-stretch:normal;font-size:96px;line-height:1.25;font-family:msbm10;-inkscape-font-specification:msbm10;letter-spacing:0px;word-spacing:0px;fill:#000000;fill-opacity:1;stroke:none"
             transform="matrix(0.26458333,0,0,0.26458333,1.992228,4.7184125)"
             aria-label="V">
            <path
               id="path941"
               style="font-size:96px"
               d="m -166.20312,486.49882 -25.92188,-57 q -1.26562,-2.76563 -2.67187,-4.5 -1.40625,-1.73438 -3.65625,-1.73438 -1.54688,-0.375 -1.54688,-1.73437 0,-0.60938 0.46875,-1.125 0.46875,-0.51563 1.07813,-0.51563 h 28.5 q 0.65625,0.14063 1.07812,0.60938 0.46875,0.42187 0.46875,1.03125 0,0.60937 -0.46875,1.17187 -0.46875,0.5625 -1.07812,0.5625 -3.32813,0 -6.04688,2.57813 0,0.1875 -0.0937,0.28125 0,3.9375 5.01563,15.9375 5.0625,11.95312 11.39062,25.82812 5.67188,-13.35937 9.04688,-22.875 3.42187,-9.5625 3.42187,-16.26562 0,-2.53125 -0.84375,-3.98438 -0.79687,-1.5 -3.09375,-1.5 -1.5,-0.32812 -1.5,-1.73437 0,-0.5625 0.42188,-1.07813 0.46875,-0.5625 1.07812,-0.5625 h 18.75 q 0.65625,0.14063 1.07813,0.60938 0.46875,0.42187 0.46875,1.03125 0,0.60937 -0.46875,1.17187 -0.46875,0.5625 -1.07813,0.5625 -2.0625,0 -3.75,1.26563 -1.64062,1.21875 -2.48437,3.14062 l -24.51563,58.82813 q -0.28125,0.98437 -1.5,0.98437 -1.07812,0 -1.54687,-0.98437 z m 1.54687,-4.875 3.51563,-8.71875 q -2.34375,-4.6875 -6.75,-14.625 -4.35938,-9.98438 -7.96875,-19.54688 -3.60938,-9.5625 -3.60938,-12.60937 0,-1.5 1.35938,-2.85938 h -13.82813 q 1.5,1.73438 2.85938,4.875 z m 20.625,-49.64063 2.29688,-5.67187 q 1.03125,-2.01563 1.92187,-3.04688 h -5.15625 q 1.125,1.96875 1.125,5.48438 0,1.17187 -0.1875,3.23437 z"
               inkscape:connector-curvature="0" />
          </g>
          <g
             id="flowRoot847"
             style="font-style:normal;font-weight:normal;font-size:40px;line-height:1.25;font-family:sans-serif;letter-spacing:0px;word-spacing:0px;fill:#000000;fill-opacity:1;stroke:none"
             transform="matrix(0.26458333,0,0,0.26458333,-0.00329909,9.9749384)"
             aria-label="E">
            <path
               inkscape:connector-curvature="0"
               id="path938"
               style="font-style:normal;font-variant:normal;font-weight:normal;font-stretch:normal;font-size:96px;font-family:msbm10;-inkscape-font-specification:msbm10"
               d="m -13.453125,466.09257 q -0.375,-0.75 -0.375,-1.17188 0,-0.375 0.375,-1.125 0.609375,-0.42187 1.125,-0.60937 3.234375,0 4.5,-0.23438 1.3125,-0.28125 1.875,-1.40625 0.5625,-1.125 0.5625,-3.9375 v -48 q 0,-3.60937 -1.3125,-4.35937 -1.3125,-0.79688 -5.625,-0.79688 -0.5625,-0.23437 -1.125,-0.5625 -0.375,-0.84375 -0.375,-1.17187 0,-0.32813 0.375,-1.17188 0.5625,-0.375 1.125,-0.5625 H 40.3125 q 0.5625,0.23438 1.125,0.5625 0.234375,0.51563 0.375,0.98438 v 15.75 q -0.140625,0.42187 -0.375,0.9375 -1.03125,0.60937 -1.3125,0.60937 -0.328125,0 -1.359375,-0.60937 -0.234375,-0.51563 -0.375,-0.9375 0,-6.79688 -6.140625,-10.3125 -6.140625,-3.51563 -13.640625,-3.51563 H 12.46875 q -2.90625,0 -2.90625,5.57813 v 21.09375 q 4.734375,0 8.25,-1.40625 3.515625,-1.45313 5.4375,-4.54688 1.96875,-3.09375 1.96875,-7.875 0.1875,-0.42187 0.1875,-0.51562 0.04687,-0.0937 0.1875,-0.42188 1.03125,-0.5625 1.359375,-0.5625 0.515625,0 1.359375,0.5625 0.234375,0.51563 0.375,0.9375 v 29.20313 q -0.140625,0.42187 -0.375,0.9375 -0.796875,0.60937 -1.359375,0.60937 -0.421875,0 -1.359375,-0.60937 -0.140625,-0.32813 -0.1875,-0.42188 0,-0.0937 -0.1875,-0.51562 0,-11.90625 -15.65625,-11.90625 v 23.01562 q 0,5.57813 2.90625,5.57813 h 7.078125 q 7.78125,0 14.90625,-6.14063 4.96875,-4.64062 6.890625,-8.34375 0.5625,-1.07812 1.171875,-3.51562 0.609375,-2.4375 0.84375,-2.90625 0.9375,-0.5625 1.359375,-0.5625 0.328125,0 1.359375,0.5625 0.375,0.75 0.375,1.21875 l -2.71875,21.60937 q -0.09375,0.42188 -0.375,0.98438 -0.5625,0.375 -1.125,0.5625 h -54.5625 q -0.5625,-0.23438 -1.125,-0.5625 z m 10.734375,-2.90625 h 9.984375 q -1.125,-2.57813 -1.125,-5.15625 v -24.98438 q 0.09375,0.42188 0.375,0.98438 0.9375,0.5625 1.3125,0.5625 H 9.5625 v -3.46875 H 7.828125 q -0.421875,0 -1.3125,0.60937 -0.234375,0.51563 -0.375,0.9375 v -23.0625 q 0,-2.53125 1.125,-5.15625 H -2.71875 q 0.796875,2.10938 0.796875,5.15625 v 48.42188 q 0,3.04687 -0.796875,5.15625 z m 34.453125,0 H 40.5 l 1.03125,-8.34375 q -3.84375,4.82812 -9.796875,8.34375 z" />
          </g>
          <g
             id="flowRoot855"
             style="font-style:normal;font-weight:normal;font-size:40px;line-height:1.25;font-family:sans-serif;letter-spacing:0px;word-spacing:0px;fill:#000000;fill-opacity:1;stroke:none"
             transform="matrix(0.26458333,0,0,0.26458333,-1.4283184,9.7454957)"
             aria-label="N">
            <path
               inkscape:connector-curvature="0"
               id="path935"
               style="font-style:normal;font-variant:normal;font-weight:normal;font-stretch:normal;font-size:96px;font-family:msbm10;-inkscape-font-specification:msbm10"
               d="m 164.9375,466.65507 q -0.5625,0 -1.07813,-0.51563 -0.46875,-0.5625 -0.46875,-1.21875 0,-0.60937 0.42188,-1.03125 0.46875,-0.46875 1.125,-0.60937 3,0 4.45312,-0.60938 1.45313,-0.60937 1.875,-2.15625 0.46875,-1.59375 0.46875,-4.59375 v -48 q 0,-0.14062 0.0937,-0.375 0.0937,-0.23437 0.0937,-0.32812 -2.53125,-2.95313 -5.8125,-2.95313 -0.65625,0 -1.125,-0.5625 -0.42187,-0.60937 -0.42187,-1.17187 0,-1.3125 1.54687,-1.64063 h 20.0625 q 0.46875,0 1.125,0.65625 l 29.57813,39.84375 v -29.76562 q 0,-4.59375 -1.40625,-5.95313 -1.35938,-1.40625 -6,-1.40625 -0.60938,0 -1.07813,-0.5625 -0.46875,-0.5625 -0.46875,-1.17187 0,-0.60938 0.42188,-1.03125 0.46875,-0.46875 1.125,-0.60938 h 17.39062 q 0.60938,0 1.07813,0.51563 0.46875,0.51562 0.46875,1.125 0,1.40625 -1.54688,1.73437 -4.125,0 -5.0625,1.5 -0.89062,1.5 -0.89062,5.85938 v 55.3125 q 0,0.70312 -0.5625,1.125 -0.5625,0.42187 -1.07813,0.42187 -0.60937,0 -1.35937,-0.65625 l -42.14063,-55.59375 v 43.875 q 0,3.14063 0.60938,4.59375 0.60937,1.45313 2.15625,2.01563 1.59375,0.5625 4.64062,0.5625 0.65625,0 1.07813,0.51562 0.46875,0.46875 0.46875,1.125 0,1.40625 -1.54688,1.73438 z m 52.59375,-4.875 V 447.95194 L 185.1875,404.26444 H 173.75 q 0.0469,0 0.32812,0.375 0.9375,0.9375 1.40625,1.54688 z" />
          </g>
          <g
             id="flowRoot863"
             style="font-style:normal;font-weight:normal;font-size:40px;line-height:1.25;font-family:sans-serif;letter-spacing:0px;word-spacing:0px;fill:#000000;fill-opacity:1;stroke:none"
             transform="matrix(0.26458333,0,0,0.26458333,-0.58165476,11.068412)"
             aria-label="N">
            <path
               inkscape:connector-curvature="0"
               id="path932"
               style="font-style:normal;font-variant:normal;font-weight:normal;font-stretch:normal;font-size:96px;font-family:msbm10;-inkscape-font-specification:msbm10"
               d="m 335.9375,461.65507 q -0.5625,0 -1.07813,-0.51563 -0.46875,-0.5625 -0.46875,-1.21875 0,-0.60937 0.42188,-1.03125 0.46875,-0.46875 1.125,-0.60937 3,0 4.45312,-0.60938 1.45313,-0.60937 1.875,-2.15625 0.46875,-1.59375 0.46875,-4.59375 v -48 q 0,-0.14062 0.0937,-0.375 0.0937,-0.23437 0.0937,-0.32812 -2.53125,-2.95313 -5.8125,-2.95313 -0.65625,0 -1.125,-0.5625 -0.42187,-0.60937 -0.42187,-1.17187 0,-1.3125 1.54687,-1.64063 h 20.0625 q 0.46875,0 1.125,0.65625 l 29.57813,39.84375 v -29.76562 q 0,-4.59375 -1.40625,-5.95313 -1.35938,-1.40625 -6,-1.40625 -0.60938,0 -1.07813,-0.5625 -0.46875,-0.5625 -0.46875,-1.17187 0,-0.60938 0.42188,-1.03125 0.46875,-0.46875 1.125,-0.60938 h 17.39062 q 0.60938,0 1.07813,0.51563 0.46875,0.51562 0.46875,1.125 0,1.40625 -1.54688,1.73437 -4.125,0 -5.0625,1.5 -0.89062,1.5 -0.89062,5.85938 v 55.3125 q 0,0.70312 -0.5625,1.125 -0.5625,0.42187 -1.07813,0.42187 -0.60937,0 -1.35937,-0.65625 l -42.14063,-55.59375 v 43.875 q 0,3.14063 0.60938,4.59375 0.60937,1.45313 2.15625,2.01563 1.59375,0.5625 4.64062,0.5625 0.65625,0 1.07813,0.51562 0.46875,0.46875 0.46875,1.125 0,1.40625 -1.54688,1.73438 z m 52.59375,-4.875 V 442.95194 L 356.1875,399.26444 H 344.75 q 0.0469,0 0.32812,0.375 0.9375,0.9375 1.40625,1.54688 z" />
          </g>
          <g
             id="flowRoot871"
             style="font-style:normal;font-weight:normal;font-size:40px;line-height:1.25;font-family:sans-serif;letter-spacing:0px;word-spacing:0px;fill:#000000;fill-opacity:1;stroke:none"
             transform="matrix(0.26458333,0,0,0.26458333,5.3499594,9.1935908)"
             aria-label="I">
            <path
               inkscape:connector-curvature="0"
               id="path929"
               style="font-style:normal;font-variant:normal;font-weight:normal;font-stretch:normal;font-size:96px;font-family:msbm10;-inkscape-font-specification:msbm10"
               d="m 503.46875,469.65507 q -1.54688,-0.32813 -1.54688,-1.73438 0,-0.5625 0.42188,-1.07812 0.46875,-0.5625 1.125,-0.5625 3.32812,0 4.6875,-0.23438 1.40625,-0.28125 2.01562,-1.45312 0.65625,-1.17188 0.65625,-3.98438 v -47.85937 q 0,-2.625 -0.70312,-3.79688 -0.65625,-1.17187 -2.0625,-1.40625 -1.35938,-0.28125 -4.59375,-0.28125 -1.54688,-0.32812 -1.54688,-1.73437 0,-0.5625 0.42188,-1.07813 0.46875,-0.5625 1.125,-0.5625 h 30.42187 q 0.65625,0.14063 1.07813,0.60938 0.46875,0.42187 0.46875,1.03125 0,0.60937 -0.46875,1.17187 -0.46875,0.5625 -1.07813,0.5625 -3.32812,0 -4.73437,0.28125 -1.35938,0.23438 -2.01563,1.40625 -0.65625,1.17188 -0.65625,3.98438 v 47.67187 q 0,2.8125 0.65625,3.98438 0.65625,1.17187 2.01563,1.45312 1.40625,0.23438 4.73437,0.23438 0.65625,0.14062 1.07813,0.60937 0.46875,0.42188 0.46875,1.03125 0,0.65625 -0.51563,1.21875 -0.46875,0.51563 -1.03125,0.51563 z m 9.89062,-3.375 H 524 q -0.84375,-1.73438 -0.84375,-5.4375 v -48.09375 q 0,-3.51563 0.84375,-5.48438 h -10.64063 q 0.84375,1.73438 0.84375,5.48438 v 48.09375 q 0,3.46875 -0.84375,5.4375 z" />
          </g>
        </g>
        <path
           style="opacity:1;fill:#000000;fill-opacity:1;stroke:#000000;stroke-width:3;stroke-miterlimit:4;stroke-dasharray:none;stroke-dashoffset:0"
           d="m -188.83699,451.33641 c -6.97992,-15.28216 -13.02238,-28.26785 -13.42768,-28.8571 -0.40531,-0.58924 -0.73693,-1.12362 -0.73693,-1.1875 0,-0.0639 2.9232,-0.11614 6.49599,-0.11614 h 6.49599 l -0.53072,1.01821 c -1.03044,1.97693 -0.29502,5.27389 3.34095,14.97784 3.38587,9.03643 7.58791,18.94037 12.46717,29.38425 l 1.98803,4.25531 -1.70102,4.15544 -1.70103,4.15544 z"
           id="path1064"
           inkscape:connector-curvature="0"
           transform="scale(0.26458333)" />
        <path
           style="opacity:1;fill:#000000;fill-opacity:1;stroke:#000000;stroke-width:3;stroke-miterlimit:4;stroke-dasharray:none;stroke-dashoffset:0"
           d="m -21.15715,480.01005 c 0.578096,-1.22066 0.858489,-50.19842 0.310785,-54.28634 l -0.447317,-3.33866 h 4.652189 4.652188 l -0.487625,1.28255 c -0.270565,0.71164 -0.487624,6.95945 -0.487624,14.03571 0,11.59379 0.07143,12.68174 0.785714,11.96745 0.432143,-0.43214 1.219643,-0.78571 1.75,-0.78571 0.738095,0 0.9642855,0.35185 0.9642855,1.5 0,1.23188 -0.2055555,1.5 -1.1499995,1.5 -0.6325,0 -1.42,-0.27 -1.75,-0.6 -0.759926,-0.75993 -0.867436,26.33149 -0.112376,28.31745 l 0.487625,1.28255 h -4.791119 c -4.387502,0 -4.75621,-0.0737 -4.376726,-0.875 z"
           id="path1080"
           inkscape:connector-curvature="0"
           transform="scale(0.26458333)" />
        <path
           style="opacity:1;fill:#000000;fill-opacity:1;stroke:#000000;stroke-width:3;stroke-miterlimit:4;stroke-dasharray:none;stroke-dashoffset:0"
           d="m 178.03545,458.26536 c -8.1125,-10.76447 -17.71942,-23.46618 -21.34871,-28.22604 l -6.59871,-8.65427 5.34871,0.0161 5.34871,0.0161 16.125,21.82834 16.125,21.82834 v 6.40558 c 0,3.52307 -0.0563,6.39479 -0.125,6.38162 -0.0687,-0.0132 -6.7625,-8.83126 -14.875,-19.59573 z"
           id="path1082"
           inkscape:connector-curvature="0"
           transform="scale(0.26458333)" />
        <path
           style="opacity:1;fill:#000000;fill-opacity:1;stroke:#000000;stroke-width:3;stroke-miterlimit:4;stroke-dasharray:none;stroke-dashoffset:0"
           d="m 346.28545,450.41295 c -11.275,-14.8948 -20.8087,-27.51941 -21.18599,-28.05468 -0.66682,-0.94602 -0.53954,-0.97322 4.55458,-0.97322 h 5.24057 l 16.08551,21.7294 16.08551,21.72939 -0.14009,6.32528 -0.14009,6.32529 z"
           id="path1084"
           inkscape:connector-curvature="0"
           transform="scale(0.26458333)" />
        <path
           style="opacity:1;fill:#000000;fill-opacity:1;stroke:#000000;stroke-width:3;stroke-miterlimit:4;stroke-dasharray:none;stroke-dashoffset:0"
           d="m 515.28545,451.63514 v -29.25 l 4.5,-2.5e-4 4.5,-2.5e-4 -0.14938,27.07575 c -0.0849,15.3872 0.0508,28.01445 0.31438,29.2502 l 0.46377,2.17446 -4.81439,4e-5 -4.81438,4e-5 z"
           id="path1086"
           inkscape:connector-curvature="0"
           transform="scale(0.26458333)" />
        <path
           style="opacity:1;fill:#000000;fill-opacity:1;stroke:#000000;stroke-width:3;stroke-miterlimit:4;stroke-dasharray:none;stroke-dashoffset:0"
           d="m 15.568924,479.1826 c 1.217299,-0.85937 3.2501,-2.58423 4.517336,-3.83302 1.885197,-1.85775 2.283887,-2.15317 2.193071,-1.625 -0.133032,0.77368 -0.859715,6.54059 -0.859715,6.82264 0,0.10884 -1.814392,0.19788 -4.031981,0.19788 h -4.031982 z"
           id="path1088"
           inkscape:connector-curvature="0"
           transform="scale(0.26458333)" />
        <path
           style="opacity:1;fill:#000000;fill-opacity:1;stroke:#000000;stroke-width:2.99999976;stroke-miterlimit:4;stroke-dasharray:none;stroke-dashoffset:0"
           d="m -155.34861,426.81146 c -2.8e-4,-2.39291 -0.009,-2.52795 -0.23653,-3.47645 -0.12993,-0.54276 -0.35465,-1.26865 -0.49937,-1.61309 l -0.26312,-0.62626 h 2.46629 c 1.35646,0 2.46629,0.0175 2.46629,0.0388 0,0.0213 -0.20881,0.33111 -0.46403,0.68834 -0.78229,1.09497 -1.33523,2.2152 -2.41148,4.88549 -0.56821,1.4098 -1.03866,2.5699 -1.04544,2.57801 -0.007,0.008 -0.0125,-1.10558 -0.0126,-2.47487 z"
           id="path1090"
           inkscape:connector-curvature="0"
           transform="scale(0.26458333)" />
      </g>
      <flowRoot
         transform="matrix(0.26458333,0,0,0.26458333,14.271529,72.181846)"
         style="font-style:normal;font-weight:normal;font-size:40px;line-height:1.25;font-family:sans-serif;letter-spacing:0px;word-spacing:0px;fill:#000000;fill-opacity:1;stroke:none"
         id="flowRoot1145"
         xml:space="preserve"><flowRegion
           id="flowRegion1147"><rect
             y="605.51971"
             x="-307"
             height="82"
             width="465"
             id="rect1149" /></flowRegion><flowPara
           style="font-style:normal;font-variant:normal;font-weight:normal;font-stretch:normal;font-size:64px;font-family:msbm10;-inkscape-font-specification:msbm10"
           id="flowPara1151">DIAGRAMMID</flowPara></flowRoot>    </g>
    <g
       transform="translate(127.59447,-63.187349)"
       id="g1269">
      <g
         id="g1253"
         transform="translate(-5.0270833,-5.2916667)">
        <circle
           r="37.570831"
           cy="124.75625"
           cx="-64.822914"
           id="circle1221"
           style="opacity:1;fill:none;fill-opacity:1;stroke:#000000;stroke-width:0.79374999;stroke-miterlimit:4;stroke-dasharray:none;stroke-dashoffset:0" />
        <circle
           style="opacity:1;fill:none;fill-opacity:1;stroke:#000000;stroke-width:0.79374999;stroke-miterlimit:4;stroke-dasharray:none;stroke-dashoffset:0"
           id="circle1223"
           cx="-18.732491"
           cy="124.75625"
           r="37.570831" />
        <circle
           r="37.570831"
           cy="124.75625"
           cx="27.357924"
           id="circle1225"
           style="opacity:1;fill:none;fill-opacity:1;stroke:#000000;stroke-width:0.79374999;stroke-miterlimit:4;stroke-dasharray:none;stroke-dashoffset:0" />
        <circle
           style="opacity:1;fill:none;fill-opacity:1;stroke:#000000;stroke-width:0.79374999;stroke-miterlimit:4;stroke-dasharray:none;stroke-dashoffset:0"
           id="circle1227"
           cx="73.448334"
           cy="124.75625"
           r="37.570831" />
        <circle
           r="37.570831"
           cy="124.75625"
           cx="119.53875"
           id="circle1229"
           style="opacity:1;fill:none;fill-opacity:1;stroke:#000000;stroke-width:0.79374999;stroke-miterlimit:4;stroke-dasharray:none;stroke-dashoffset:0" />
        <circle
           style="opacity:1;fill:none;fill-opacity:1;stroke:#000000;stroke-width:0.79374999;stroke-miterlimit:4;stroke-dasharray:none;stroke-dashoffset:0"
           id="circle1231"
           cx="165.62917"
           cy="124.75625"
           r="37.570831" />
        <g
           id="g1235"
           style="font-style:normal;font-variant:normal;font-weight:normal;font-stretch:normal;font-size:96px;line-height:1.25;font-family:msbm10;-inkscape-font-specification:msbm10;letter-spacing:0px;word-spacing:0px;fill:#000000;fill-opacity:1;stroke:none"
           transform="matrix(0.26458333,0,0,0.26458333,1.992228,4.7184125)"
           aria-label="V">
          <path
             id="path1233"
             style="font-size:96px"
             d="m -166.20312,486.49882 -25.92188,-57 q -1.26562,-2.76563 -2.67187,-4.5 -1.40625,-1.73438 -3.65625,-1.73438 -1.54688,-0.375 -1.54688,-1.73437 0,-0.60938 0.46875,-1.125 0.46875,-0.51563 1.07813,-0.51563 h 28.5 q 0.65625,0.14063 1.07812,0.60938 0.46875,0.42187 0.46875,1.03125 0,0.60937 -0.46875,1.17187 -0.46875,0.5625 -1.07812,0.5625 -3.32813,0 -6.04688,2.57813 0,0.1875 -0.0937,0.28125 0,3.9375 5.01563,15.9375 5.0625,11.95312 11.39062,25.82812 5.67188,-13.35937 9.04688,-22.875 3.42187,-9.5625 3.42187,-16.26562 0,-2.53125 -0.84375,-3.98438 -0.79687,-1.5 -3.09375,-1.5 -1.5,-0.32812 -1.5,-1.73437 0,-0.5625 0.42188,-1.07813 0.46875,-0.5625 1.07812,-0.5625 h 18.75 q 0.65625,0.14063 1.07813,0.60938 0.46875,0.42187 0.46875,1.03125 0,0.60937 -0.46875,1.17187 -0.46875,0.5625 -1.07813,0.5625 -2.0625,0 -3.75,1.26563 -1.64062,1.21875 -2.48437,3.14062 l -24.51563,58.82813 q -0.28125,0.98437 -1.5,0.98437 -1.07812,0 -1.54687,-0.98437 z m 1.54687,-4.875 3.51563,-8.71875 q -2.34375,-4.6875 -6.75,-14.625 -4.35938,-9.98438 -7.96875,-19.54688 -3.60938,-9.5625 -3.60938,-12.60937 0,-1.5 1.35938,-2.85938 h -13.82813 q 1.5,1.73438 2.85938,4.875 z m 20.625,-49.64063 2.29688,-5.67187 q 1.03125,-2.01563 1.92187,-3.04688 h -5.15625 q 1.125,1.96875 1.125,5.48438 0,1.17187 -0.1875,3.23437 z"
             inkscape:connector-curvature="0" />
        </g>
        <g
           id="g1239"
           style="font-style:normal;font-weight:normal;font-size:40px;line-height:1.25;font-family:sans-serif;letter-spacing:0px;word-spacing:0px;fill:#000000;fill-opacity:1;stroke:none"
           transform="matrix(0.26458333,0,0,0.26458333,-0.00329909,9.9749384)"
           aria-label="E">
          <path
             inkscape:connector-curvature="0"
             id="path1237"
             style="font-style:normal;font-variant:normal;font-weight:normal;font-stretch:normal;font-size:96px;font-family:msbm10;-inkscape-font-specification:msbm10"
             d="m -13.453125,466.09257 q -0.375,-0.75 -0.375,-1.17188 0,-0.375 0.375,-1.125 0.609375,-0.42187 1.125,-0.60937 3.234375,0 4.5,-0.23438 1.3125,-0.28125 1.875,-1.40625 0.5625,-1.125 0.5625,-3.9375 v -48 q 0,-3.60937 -1.3125,-4.35937 -1.3125,-0.79688 -5.625,-0.79688 -0.5625,-0.23437 -1.125,-0.5625 -0.375,-0.84375 -0.375,-1.17187 0,-0.32813 0.375,-1.17188 0.5625,-0.375 1.125,-0.5625 H 40.3125 q 0.5625,0.23438 1.125,0.5625 0.234375,0.51563 0.375,0.98438 v 15.75 q -0.140625,0.42187 -0.375,0.9375 -1.03125,0.60937 -1.3125,0.60937 -0.328125,0 -1.359375,-0.60937 -0.234375,-0.51563 -0.375,-0.9375 0,-6.79688 -6.140625,-10.3125 -6.140625,-3.51563 -13.640625,-3.51563 H 12.46875 q -2.90625,0 -2.90625,5.57813 v 21.09375 q 4.734375,0 8.25,-1.40625 3.515625,-1.45313 5.4375,-4.54688 1.96875,-3.09375 1.96875,-7.875 0.1875,-0.42187 0.1875,-0.51562 0.04687,-0.0937 0.1875,-0.42188 1.03125,-0.5625 1.359375,-0.5625 0.515625,0 1.359375,0.5625 0.234375,0.51563 0.375,0.9375 v 29.20313 q -0.140625,0.42187 -0.375,0.9375 -0.796875,0.60937 -1.359375,0.60937 -0.421875,0 -1.359375,-0.60937 -0.140625,-0.32813 -0.1875,-0.42188 0,-0.0937 -0.1875,-0.51562 0,-11.90625 -15.65625,-11.90625 v 23.01562 q 0,5.57813 2.90625,5.57813 h 7.078125 q 7.78125,0 14.90625,-6.14063 4.96875,-4.64062 6.890625,-8.34375 0.5625,-1.07812 1.171875,-3.51562 0.609375,-2.4375 0.84375,-2.90625 0.9375,-0.5625 1.359375,-0.5625 0.328125,0 1.359375,0.5625 0.375,0.75 0.375,1.21875 l -2.71875,21.60937 q -0.09375,0.42188 -0.375,0.98438 -0.5625,0.375 -1.125,0.5625 h -54.5625 q -0.5625,-0.23438 -1.125,-0.5625 z m 10.734375,-2.90625 h 9.984375 q -1.125,-2.57813 -1.125,-5.15625 v -24.98438 q 0.09375,0.42188 0.375,0.98438 0.9375,0.5625 1.3125,0.5625 H 9.5625 v -3.46875 H 7.828125 q -0.421875,0 -1.3125,0.60937 -0.234375,0.51563 -0.375,0.9375 v -23.0625 q 0,-2.53125 1.125,-5.15625 H -2.71875 q 0.796875,2.10938 0.796875,5.15625 v 48.42188 q 0,3.04687 -0.796875,5.15625 z m 34.453125,0 H 40.5 l 1.03125,-8.34375 q -3.84375,4.82812 -9.796875,8.34375 z" />
        </g>
        <g
           id="g1243"
           style="font-style:normal;font-weight:normal;font-size:40px;line-height:1.25;font-family:sans-serif;letter-spacing:0px;word-spacing:0px;fill:#000000;fill-opacity:1;stroke:none"
           transform="matrix(0.26458333,0,0,0.26458333,-1.4283184,9.7454957)"
           aria-label="N">
          <path
             inkscape:connector-curvature="0"
             id="path1241"
             style="font-style:normal;font-variant:normal;font-weight:normal;font-stretch:normal;font-size:96px;font-family:msbm10;-inkscape-font-specification:msbm10"
             d="m 164.9375,466.65507 q -0.5625,0 -1.07813,-0.51563 -0.46875,-0.5625 -0.46875,-1.21875 0,-0.60937 0.42188,-1.03125 0.46875,-0.46875 1.125,-0.60937 3,0 4.45312,-0.60938 1.45313,-0.60937 1.875,-2.15625 0.46875,-1.59375 0.46875,-4.59375 v -48 q 0,-0.14062 0.0937,-0.375 0.0937,-0.23437 0.0937,-0.32812 -2.53125,-2.95313 -5.8125,-2.95313 -0.65625,0 -1.125,-0.5625 -0.42187,-0.60937 -0.42187,-1.17187 0,-1.3125 1.54687,-1.64063 h 20.0625 q 0.46875,0 1.125,0.65625 l 29.57813,39.84375 v -29.76562 q 0,-4.59375 -1.40625,-5.95313 -1.35938,-1.40625 -6,-1.40625 -0.60938,0 -1.07813,-0.5625 -0.46875,-0.5625 -0.46875,-1.17187 0,-0.60938 0.42188,-1.03125 0.46875,-0.46875 1.125,-0.60938 h 17.39062 q 0.60938,0 1.07813,0.51563 0.46875,0.51562 0.46875,1.125 0,1.40625 -1.54688,1.73437 -4.125,0 -5.0625,1.5 -0.89062,1.5 -0.89062,5.85938 v 55.3125 q 0,0.70312 -0.5625,1.125 -0.5625,0.42187 -1.07813,0.42187 -0.60937,0 -1.35937,-0.65625 l -42.14063,-55.59375 v 43.875 q 0,3.14063 0.60938,4.59375 0.60937,1.45313 2.15625,2.01563 1.59375,0.5625 4.64062,0.5625 0.65625,0 1.07813,0.51562 0.46875,0.46875 0.46875,1.125 0,1.40625 -1.54688,1.73438 z m 52.59375,-4.875 V 447.95194 L 185.1875,404.26444 H 173.75 q 0.0469,0 0.32812,0.375 0.9375,0.9375 1.40625,1.54688 z" />
        </g>
        <g
           id="g1247"
           style="font-style:normal;font-weight:normal;font-size:40px;line-height:1.25;font-family:sans-serif;letter-spacing:0px;word-spacing:0px;fill:#000000;fill-opacity:1;stroke:none"
           transform="matrix(0.26458333,0,0,0.26458333,-0.58165476,11.068412)"
           aria-label="N">
          <path
             inkscape:connector-curvature="0"
             id="path1245"
             style="font-style:normal;font-variant:normal;font-weight:normal;font-stretch:normal;font-size:96px;font-family:msbm10;-inkscape-font-specification:msbm10"
             d="m 335.9375,461.65507 q -0.5625,0 -1.07813,-0.51563 -0.46875,-0.5625 -0.46875,-1.21875 0,-0.60937 0.42188,-1.03125 0.46875,-0.46875 1.125,-0.60937 3,0 4.45312,-0.60938 1.45313,-0.60937 1.875,-2.15625 0.46875,-1.59375 0.46875,-4.59375 v -48 q 0,-0.14062 0.0937,-0.375 0.0937,-0.23437 0.0937,-0.32812 -2.53125,-2.95313 -5.8125,-2.95313 -0.65625,0 -1.125,-0.5625 -0.42187,-0.60937 -0.42187,-1.17187 0,-1.3125 1.54687,-1.64063 h 20.0625 q 0.46875,0 1.125,0.65625 l 29.57813,39.84375 v -29.76562 q 0,-4.59375 -1.40625,-5.95313 -1.35938,-1.40625 -6,-1.40625 -0.60938,0 -1.07813,-0.5625 -0.46875,-0.5625 -0.46875,-1.17187 0,-0.60938 0.42188,-1.03125 0.46875,-0.46875 1.125,-0.60938 h 17.39062 q 0.60938,0 1.07813,0.51563 0.46875,0.51562 0.46875,1.125 0,1.40625 -1.54688,1.73437 -4.125,0 -5.0625,1.5 -0.89062,1.5 -0.89062,5.85938 v 55.3125 q 0,0.70312 -0.5625,1.125 -0.5625,0.42187 -1.07813,0.42187 -0.60937,0 -1.35937,-0.65625 l -42.14063,-55.59375 v 43.875 q 0,3.14063 0.60938,4.59375 0.60937,1.45313 2.15625,2.01563 1.59375,0.5625 4.64062,0.5625 0.65625,0 1.07813,0.51562 0.46875,0.46875 0.46875,1.125 0,1.40625 -1.54688,1.73438 z m 52.59375,-4.875 V 442.95194 L 356.1875,399.26444 H 344.75 q 0.0469,0 0.32812,0.375 0.9375,0.9375 1.40625,1.54688 z" />
        </g>
        <g
           id="g1251"
           style="font-style:normal;font-weight:normal;font-size:40px;line-height:1.25;font-family:sans-serif;letter-spacing:0px;word-spacing:0px;fill:#000000;fill-opacity:1;stroke:none"
           transform="matrix(0.26458333,0,0,0.26458333,5.3499594,9.1935908)"
           aria-label="I">
          <path
             inkscape:connector-curvature="0"
             id="path1249"
             style="font-style:normal;font-variant:normal;font-weight:normal;font-stretch:normal;font-size:96px;font-family:msbm10;-inkscape-font-specification:msbm10"
             d="m 503.46875,469.65507 q -1.54688,-0.32813 -1.54688,-1.73438 0,-0.5625 0.42188,-1.07812 0.46875,-0.5625 1.125,-0.5625 3.32812,0 4.6875,-0.23438 1.40625,-0.28125 2.01562,-1.45312 0.65625,-1.17188 0.65625,-3.98438 v -47.85937 q 0,-2.625 -0.70312,-3.79688 -0.65625,-1.17187 -2.0625,-1.40625 -1.35938,-0.28125 -4.59375,-0.28125 -1.54688,-0.32812 -1.54688,-1.73437 0,-0.5625 0.42188,-1.07813 0.46875,-0.5625 1.125,-0.5625 h 30.42187 q 0.65625,0.14063 1.07813,0.60938 0.46875,0.42187 0.46875,1.03125 0,0.60937 -0.46875,1.17187 -0.46875,0.5625 -1.07813,0.5625 -3.32812,0 -4.73437,0.28125 -1.35938,0.23438 -2.01563,1.40625 -0.65625,1.17188 -0.65625,3.98438 v 47.67187 q 0,2.8125 0.65625,3.98438 0.65625,1.17187 2.01563,1.45312 1.40625,0.23438 4.73437,0.23438 0.65625,0.14062 1.07813,0.60937 0.46875,0.42188 0.46875,1.03125 0,0.65625 -0.51563,1.21875 -0.46875,0.51563 -1.03125,0.51563 z m 9.89062,-3.375 H 524 q -0.84375,-1.73438 -0.84375,-5.4375 v -48.09375 q 0,-3.51563 0.84375,-5.48438 h -10.64063 q 0.84375,1.73438 0.84375,5.48438 v 48.09375 q 0,3.46875 -0.84375,5.4375 z" />
        </g>
      </g>
      <path
         style="opacity:1;fill:#000000;fill-opacity:1;stroke:#000000;stroke-width:3;stroke-miterlimit:4;stroke-dasharray:none;stroke-dashoffset:0"
         d="m -188.83699,451.33641 c -6.97992,-15.28216 -13.02238,-28.26785 -13.42768,-28.8571 -0.40531,-0.58924 -0.73693,-1.12362 -0.73693,-1.1875 0,-0.0639 2.9232,-0.11614 6.49599,-0.11614 h 6.49599 l -0.53072,1.01821 c -1.03044,1.97693 -0.29502,5.27389 3.34095,14.97784 3.38587,9.03643 7.58791,18.94037 12.46717,29.38425 l 1.98803,4.25531 -1.70102,4.15544 -1.70103,4.15544 z"
         id="path1255"
         inkscape:connector-curvature="0"
         transform="scale(0.26458333)" />
      <path
         style="opacity:1;fill:#000000;fill-opacity:1;stroke:#000000;stroke-width:3;stroke-miterlimit:4;stroke-dasharray:none;stroke-dashoffset:0"
         d="m -21.15715,480.01005 c 0.578096,-1.22066 0.858489,-50.19842 0.310785,-54.28634 l -0.447317,-3.33866 h 4.652189 4.652188 l -0.487625,1.28255 c -0.270565,0.71164 -0.487624,6.95945 -0.487624,14.03571 0,11.59379 0.07143,12.68174 0.785714,11.96745 0.432143,-0.43214 1.219643,-0.78571 1.75,-0.78571 0.738095,0 0.9642855,0.35185 0.9642855,1.5 0,1.23188 -0.2055555,1.5 -1.1499995,1.5 -0.6325,0 -1.42,-0.27 -1.75,-0.6 -0.759926,-0.75993 -0.867436,26.33149 -0.112376,28.31745 l 0.487625,1.28255 h -4.791119 c -4.387502,0 -4.75621,-0.0737 -4.376726,-0.875 z"
         id="path1257"
         inkscape:connector-curvature="0"
         transform="scale(0.26458333)" />
      <path
         style="opacity:1;fill:#000000;fill-opacity:1;stroke:#000000;stroke-width:3;stroke-miterlimit:4;stroke-dasharray:none;stroke-dashoffset:0"
         d="m 178.03545,458.26536 c -8.1125,-10.76447 -17.71942,-23.46618 -21.34871,-28.22604 l -6.59871,-8.65427 5.34871,0.0161 5.34871,0.0161 16.125,21.82834 16.125,21.82834 v 6.40558 c 0,3.52307 -0.0563,6.39479 -0.125,6.38162 -0.0687,-0.0132 -6.7625,-8.83126 -14.875,-19.59573 z"
         id="path1259"
         inkscape:connector-curvature="0"
         transform="scale(0.26458333)" />
      <path
         style="opacity:1;fill:#000000;fill-opacity:1;stroke:#000000;stroke-width:3;stroke-miterlimit:4;stroke-dasharray:none;stroke-dashoffset:0"
         d="m 346.28545,450.41295 c -11.275,-14.8948 -20.8087,-27.51941 -21.18599,-28.05468 -0.66682,-0.94602 -0.53954,-0.97322 4.55458,-0.97322 h 5.24057 l 16.08551,21.7294 16.08551,21.72939 -0.14009,6.32528 -0.14009,6.32529 z"
         id="path1261"
         inkscape:connector-curvature="0"
         transform="scale(0.26458333)" />
      <path
         style="opacity:1;fill:#000000;fill-opacity:1;stroke:#000000;stroke-width:3;stroke-miterlimit:4;stroke-dasharray:none;stroke-dashoffset:0"
         d="m 515.28545,451.63514 v -29.25 l 4.5,-2.5e-4 4.5,-2.5e-4 -0.14938,27.07575 c -0.0849,15.3872 0.0508,28.01445 0.31438,29.2502 l 0.46377,2.17446 -4.81439,4e-5 -4.81438,4e-5 z"
         id="path1263"
         inkscape:connector-curvature="0"
         transform="scale(0.26458333)" />
      <path
         style="opacity:1;fill:#000000;fill-opacity:1;stroke:#000000;stroke-width:3;stroke-miterlimit:4;stroke-dasharray:none;stroke-dashoffset:0"
         d="m 15.568924,479.1826 c 1.217299,-0.85937 3.2501,-2.58423 4.517336,-3.83302 1.885197,-1.85775 2.283887,-2.15317 2.193071,-1.625 -0.133032,0.77368 -0.859715,6.54059 -0.859715,6.82264 0,0.10884 -1.814392,0.19788 -4.031981,0.19788 h -4.031982 z"
         id="path1265"
         inkscape:connector-curvature="0"
         transform="scale(0.26458333)" />
      <path
         style="opacity:1;fill:#000000;fill-opacity:1;stroke:#000000;stroke-width:2.99999976;stroke-miterlimit:4;stroke-dasharray:none;stroke-dashoffset:0"
         d="m -155.34861,426.81146 c -2.8e-4,-2.39291 -0.009,-2.52795 -0.23653,-3.47645 -0.12993,-0.54276 -0.35465,-1.26865 -0.49937,-1.61309 l -0.26312,-0.62626 h 2.46629 c 1.35646,0 2.46629,0.0175 2.46629,0.0388 0,0.0213 -0.20881,0.33111 -0.46403,0.68834 -0.78229,1.09497 -1.33523,2.2152 -2.41148,4.88549 -0.56821,1.4098 -1.03866,2.5699 -1.04544,2.57801 -0.007,0.008 -0.0125,-1.10558 -0.0126,-2.47487 z"
         id="path1267"
         inkscape:connector-curvature="0"
         transform="scale(0.26458333)" />
    </g>
  </g>
</svg>
